<svg xmlns="http://www.w3.org/2000/svg" width="68.592" height="61.742" viewBox="0 0 68.592 61.742"><defs><style>.a{fill:#fff;}</style></defs><g transform="translate(-1207.859 -487.904)"><path class="a" d="M1219.821,571.538a4.714,4.714,0,0,1-.929.192c-3.18.018-6.358.017-9.538.018-.23,0-.46-.028-.813-.052V560.751c.9,0,1.792,0,2.681,0q11.105-.041,22.211-.085,19.361-.094,38.723-.2c1.412-.008,2.823,0,4.4,0v10.872c-.418.023-.922.075-1.424.076-10.773.04-21.546.057-32.319.116-7.065.039-14.13.143-21.194.2-.608,0-1.216-.1-1.825-.159l-.018-.075Zm19.358-9.727.054.057-.08-.04-.022-.052Zm21.4-.8-.021-.026.055-.044Zm-42.463.3a.678.678,0,0,1-.28-.036l-.044-.049.073.026.107.088.127-.058.048-.053Zm41.6,3.4-.023-.024.065-.042Zm-38.2,6.506.044.055-.078-.021Zm26.508-2.524-.033-.031.325-.308.678.173a3.156,3.156,0,0,0,1.319,1.518,6.236,6.236,0,0,0,2.118.053l-.116-.877-1.613-.115-.3-.55,1.943-.2-.113-.8-1.739-.175v-4.036l1.907-.326-.207-.837h-3.043v5.216l-1.367.212.563.778Zm-31.929,2.22.077-.028-.043.062-.066.05Zm19.681-.274.029.059-.062-.026-.278-.3.032-.031Zm12.263-1.076-.029-.031.055-.033Zm.842-.061.036.055-.065-.029Zm-29.349.622-.562.238-.05.049.03-.078.547-.245.089-.045Zm-1.721.8.639-.014.24.4.151-.143-.425-.221-.571.014-.081.05Zm-5.115-.22-.113.029.079-.063.064-.036Zm2.267,0-.317-.31c-.049-.565-.134-1.129-.142-1.694-.027-1.849-.021-3.7-.043-5.547a3.619,3.619,0,0,0-.173-.73l-1.093.14v5.19l-1.077-.1v-5.218h-1.141l.031-.032-.132,5.258-1.309.163-.318-.005c-.627.128-.158.568-.241.85l-.052.03.021-.061a.838.838,0,0,1,.266.045l.074.046-.108-.011.011-.932.378,0,1.3,1.458.161,1.116h1.059l.2-1.57h.778l.281,1.637,1.3-.068.316.311.06.052Zm.857-.643a3.155,3.155,0,0,0,2.807.2,4.221,4.221,0,0,0,.595-1.488c.021-1.881-.1-3.764-.164-5.475a1.859,1.859,0,0,0-2.432-.9,1.686,1.686,0,0,0-1.115,1.916c.046,1.182-.035,2.369.016,3.551a21.447,21.447,0,0,0,.317,2.224l-.055.042Zm7.688.018.05.059-.075-.04c.463-1.785.422-6.428-.095-7.741l-.922.156c0,1.693,0,3.293,0,4.895a8.107,8.107,0,0,1-.077,1.541c-.043.218-.366.38-.7.7-.362-2.545.058-4.876-.386-7.206h-1.013a1.619,1.619,0,0,0-.167.452c-.007,1.94-.039,3.881.028,5.819a4.523,4.523,0,0,0,.558,1.4l-.072.015.044-.042A2.642,2.642,0,0,0,1223.5,570.072Zm45.765-2.41,1.213,1.018.243,1.174,1.137-.06.3-1.323h.784l.348,1.333a4.376,4.376,0,0,0,.621.051,3.388,3.388,0,0,0,.546-.126v-7.653l-1.4.081v5.187h-.938c-.393-1.755.165-3.541-.456-5.272l-1.125.1v5.116Zm-32.995,2.1c.35.212.464.3.592.356,1.737.761,2.9.025,2.916-1.86.011-1.42.011-2.841-.027-4.26-.036-1.362-.635-1.949-1.886-1.94-1.228.009-1.827.647-1.837,2-.011,1.421-.02,2.842.014,4.261A10.338,10.338,0,0,0,1236.275,569.757Zm27.2-.919c-.087-2.265-.171-4.468-.257-6.708h-1.2c.108,2.578-.378,5.11.331,7.542a10.6,10.6,0,0,0,4.144.178c-.065-2.668-.127-5.194-.191-7.825l-1.212.236v6.7Zm-8.976,1.234v-4.8l.845,1.333c.124,1.267-.171,2.364.265,3.481l.938-.132v-7.786h-1.074l-.171,2.314-2.053-2.814v8.405ZM1228.3,567.6l-1.681.385,1.614,1.009c.572,1.377.943,1.513,3.205,1.016v-.782c-.361-.02-.641-.024-.917-.054s-.574-.09-.861-.137l.021-.225,1.772-.23.06-.7-1.853-.278v-4.2l1.743-.223v-.773h-3.1Zm31.325.722a3.267,3.267,0,0,1-1.156-2.363,3.619,3.619,0,0,1,2.451-3.2c-.019-.29-.019-.52-.058-.743-.01-.061-.135-.1-.207-.152-2.385.96-3.614,2.5-3.438,4.308a4.219,4.219,0,0,0,3.715,3.889v-3.969l-1.192.076Zm-18.486-5.994v4.978l-1.383.541,1.333.849.222,1.422,1.169-.058.165-1.547,1.728-.151-.215-.8-1.671-.16v-4.032l1.783-.206.1-.84Zm-14.99,7.946a3.192,3.192,0,0,0,.164-3.428,3.625,3.625,0,0,1-.482-2.454,12.457,12.457,0,0,1,.869-1.951,2.919,2.919,0,0,0-.508-.09,5.825,5.825,0,0,0-.651.056,3.209,3.209,0,0,0-.9,3.655c.2.58.451,1.143.684,1.711a1.782,1.782,0,0,1-.169,1.756c-.161.242-.311.491-.589.932Zm43.191-8.128h-1.44a12.408,12.408,0,0,0-.732,1.828c-.358,1.548.675,2.812.975,4.227l-.561,1.613h1.211a3.669,3.669,0,0,0-.092-3.591,3.16,3.16,0,0,1,.108-3.251C1268.957,562.74,1269.112,562.51,1269.345,562.15Zm-4.934,8.45c-.171-.112-.214-.161-.239-.154a.979.979,0,0,0-.188.1Zm-31-2.034Zm.911-5.5-.01.1.119-.042Zm2.252,8.288.082.05.016-.071Zm-24.927-.118.089.01-.036-.1Z" transform="translate(-0.277 -29.47)"/><path class="a" d="M1283.682,545.261H1279.5V529.747c1.114,0,2.194-.072,3.261.023a1.92,1.92,0,0,1,1.736,1.457,5.215,5.215,0,0,1,.266,1.384c.029,3.457.031,6.915.027,10.373A2.261,2.261,0,0,1,1283.682,545.261Zm-1.989-12.854c0,1.183,0,2.36,0,3.537,0,1.139-.012,2.279.031,3.417a8.746,8.746,0,0,0,.329,3.432,1.426,1.426,0,0,0,.519-.924c.026-2.848.017-5.7.012-8.544C1282.584,532.8,1282.437,532.386,1281.693,532.407Z" transform="translate(-29.098 -16.984)"/><path class="a" d="M1316.191,545.291l-.338-2.709-1.019.067c-.084.875-.165,1.71-.255,2.642h-2.337c.351-5.111.7-10.2,1.059-15.386h3.737c.516,5.077,1.035,10.186,1.564,15.386Zm-.755-10.358c-.56,1.039-.758,4.522-.37,4.921l.668-.1C1315.632,538.1,1315.535,536.514,1315.437,534.932Z" transform="translate(-42.397 -17.059)"/><path class="a" d="M1269.57,535.661c.037-1.42.077-2.84.108-4.261.012-.514,0-1.027,0-1.608h1.769V545.3l-1.714.077-1.178-6.011-.218.039v6.016h-1.824V529.863a5.877,5.877,0,0,1,.762-.128,8.458,8.458,0,0,1,.938.06c.351,1.768.692,3.527,1.057,5.282a2.014,2.014,0,0,0,.33.556c.022.086.042.172.023.1C1269.68,535.8,1269.625,535.729,1269.57,535.661Z" transform="translate(-23.824 -16.989)"/><path class="a" d="M1292.538,529.721c1.061,0,2.046-.026,3.029.007a1.817,1.817,0,0,1,1.766,1.4,9.894,9.894,0,0,1,.237,4.775,6.173,6.173,0,0,1-.738,1.427,3.26,3.26,0,0,1,.919,2.614c-.042,1.742-.011,3.486-.011,5.3h-1.9c-.082-1.841-.147-3.673-.254-5.5-.028-.479.184-1.075-.562-1.433a13.109,13.109,0,0,0-.165,3.441c-.042,1.127-.01,2.255-.01,3.482h-1.986C1292.553,544.1,1292.323,533.793,1292.538,529.721Zm2.288,2.644a6.412,6.412,0,0,0,.245,3.427c.543-.588.654-1.138.5-2.555C1295.532,532.826,1295.564,532.35,1294.826,532.365Z" transform="translate(-34.359 -16.981)"/><path class="a" d="M1256.781,545.5l-.293-2.594-.91-.091-.247,2.773H1253c.207-5.266.652-10.472,1.138-15.745h3.363c.489,5.193.975,10.363,1.473,15.658Zm-.72-11.118c-.236,1.869-.768,3.71-.42,5.675l.755-.231Z" transform="translate(-18.336 -17.032)"/><path class="a" d="M1246.415,545.587h-2.1l-.752-4.7-.19-.027-.49,4.695h-2.254c0-.352-.029-.711,0-1.065.232-2.408.543-4.811.689-7.225a18.374,18.374,0,0,0-.309-3.245c-.124-1.034-.293-2.064-.421-3.1a9.21,9.21,0,0,1-.006-1.05h2.1l.561,3.406.284-.01.512-3.418h1.788c-.147,1.292-.23,2.517-.436,3.722a20.567,20.567,0,0,0,.226,6.92C1245.9,542.13,1246.136,543.771,1246.415,545.587Z" transform="translate(-13.289 -17.038)"/><path class="a" d="M1208.946,530.291h3.2c.476,5.155.947,10.272,1.428,15.487h-2.186l-.2-2.464-.99-.311-.18,2.805-2.153.12Zm2.016,10.177a17.11,17.11,0,0,0-.52-5.476l-.283,5.34Z" transform="translate(0 -17.216)"/><path class="a" d="M1234.42,539.017l-1.3.154v3.308l1.567.207v2.872h-3.92V530.085l3.608-.219v3.053l-1.335.255v2.807l1.376.113Z" transform="translate(-9.306 -17.044)"/><path class="a" d="M1221.024,530.322h2.052v12.3l1.457.3v2.822h-3.51Z" transform="translate(-5.347 -17.229)"/><path class="a" d="M1208.145,524.792a11.886,11.886,0,0,1,3.784-.478c5.033-.04,10.067-.023,15.1-.06,10.017-.074,20.034-.185,30.052-.25,5.6-.036,11.207-.016,16.811-.01.6,0,1.19.081,1.785.125l0,.33c-.845,0-1.69,0-2.535,0-9.211.023-18.422.02-27.633.074-10.491.062-20.981.179-31.472.267C1212.149,524.805,1210.263,524.792,1208.145,524.792Z" transform="translate(-0.116 -14.654)"/><path class="a" d="M1211.8,522.395c.342-.6.994-.5,1.594-.5,4.7-.021,9.4-.02,14.106-.053q16.094-.114,32.187-.25c4.512-.031,9.025-.02,13.537-.015.5,0,.992.087,1.488.133l-.005.315h-1c-9.735.032-19.47.043-29.2.1-10.208.064-20.416.177-30.625.267C1213.169,522.4,1212.47,522.395,1211.8,522.395Z" transform="translate(-1.599 -13.673)"/><path class="a" d="M1214.985,519.935a2.245,2.245,0,0,1,1.723-.471q6.905-.015,13.811-.061,16.8-.11,33.594-.229c2.752-.017,5.505-.009,8.257,0,.452,0,.9.045,1.354.069l0,.316c-.362.025-.724.072-1.087.072-9.206.021-18.411.01-27.617.061-9.628.052-19.255.163-28.883.245-.379,0-.757-.023-1.136-.034Z" transform="translate(-2.894 -12.697)"/><path class="a" d="M1307.466,545.337h-1.824c-.354-5.113-.223-10.215-.229-15.423h2.053Z" transform="translate(-39.615 -17.063)"/><path class="a" d="M1273.208,517.165l-54.5.382c.388-.7.952-.472,1.4-.477,4.226-.057,8.452-.107,12.678-.127q19.657-.094,39.315-.159a10.792,10.792,0,0,1,1.166.12Z" transform="translate(-4.408 -11.73)"/><path class="a" d="M1222.305,514.756c16.626-.517,33.259-.382,49.89-.368.2,0,.39.161.9.385l-50.819.346Z" transform="translate(-5.855 -10.746)"/><path class="a" d="M1272.258,512.346l-46.591.35-.058-.225a6.621,6.621,0,0,1,1.162-.235c4.317-.1,8.634-.245,12.952-.261,10.208-.039,20.418-.02,30.626-.008A2.4,2.4,0,0,1,1272.258,512.346Z" transform="translate(-7.21 -9.76)"/><path class="a" d="M1271.47,509.96l-42.569.276c.29-.558.795-.423,1.209-.433,3.841-.094,7.682-.229,11.523-.244,9.354-.037,18.708-.021,28.062-.01C1270.274,509.549,1270.932,509.35,1271.47,509.96Z" transform="translate(-8.546 -8.779)"/><path class="a" d="M1270.64,507.579l-38.528.249a2.731,2.731,0,0,1,1.985-.577q15.387-.062,30.774-.078c1.472,0,2.944-.017,4.417,0,.45.005.9.092,1.349.142Z" transform="translate(-9.85 -7.823)"/><path class="a" d="M1231.7,585.367V587.6c-4.472.356-8.908.239-13.427.279l.5-.916,1.079-.149.017-.182-.893-.323.355-.535c.916-.168,1.156.583,1.656,1.085l.81-1.28.285,1.182h5.265l0-.22h-4.525l1.95-1.508-.227-.291.047.926h3.058l1.056,1.218.686-.637.538.5.474-.808.526.938c.135-.182.266-.278.265-.372,0-.472-.021-.935.53-1.146Z" transform="translate(-4.228 -39.332)"/><path class="a" d="M1270.178,505.3h-34.393c.422-.6,1.157-.513,1.854-.514q8.19-.026,16.38-.041,7.264-.008,14.529.017A1.628,1.628,0,0,1,1270.178,505.3Z" transform="translate(-11.343 -6.839)"/><path class="a" d="M1262.13,583.222l.229,2.973h3.746l-.106-.823,1.021-.612,1.043.559-.317.852h1.067v-2.943l.66.282.157,2.654.359.011c.542-.885.1-1.936.342-2.919l.576.21v3.544l-9.02.263A5.815,5.815,0,0,1,1262.13,583.222Zm4.673,2.45.023.166.4-.049-.026-.187Z" transform="translate(-21.849 -38.715)"/><path class="a" d="M1239.333,502.8c.4-.546.988-.429,1.534-.429q11.662-.005,23.323-.007c1.375,0,2.749-.014,4.124.006a1.448,1.448,0,0,1,1.024.43Z" transform="translate(-12.784 -5.871)"/><path class="a" d="M1243.175,500.419c.37-.7.959-.47,1.437-.472q7.893-.031,15.786-.023c2.37,0,4.74-.009,7.11.015a2.329,2.329,0,0,1,1.4.479Z" transform="translate(-14.344 -4.877)"/><path class="a" d="M1268.106,497.993h-21.542c.448-.612,1.036-.443,1.548-.444q7.889-.013,15.779,0c1.09,0,2.179-.008,3.268.013a6.2,6.2,0,0,1,.922.153Z" transform="translate(-15.72 -3.909)"/><path class="a" d="M1304.61,585.491l.254,2.183H1297.1a1.366,1.366,0,0,1-.3-.4,2.413,2.413,0,0,1-.045-.614l1.41-1.517c.877.437-.092,1.166.33,1.78h3.588l.58-.483.47.443.384-.847.51.846c.464-.421-.163-1.2.62-1.35Zm-6.805,1.524-.106-.853-.457.622Z" transform="translate(-36.106 -39.493)"/><path class="a" d="M1249.759,495.569c.38-.205.541-.369.7-.369q8.1-.031,16.2-.023a.865.865,0,0,1,.613.393Z" transform="translate(-17.018 -2.953)"/><path class="a" d="M1314.21,588.078l.509-.882,1.446-.221-1.2-.468.32-.533a1.95,1.95,0,0,1,1.838,1.157l1.516-.728,1,.915a1.263,1.263,0,0,1-1.185,1.4l-1.278-.637Zm4.612-.3.01-.331a1.277,1.277,0,0,0-.434-.045c-.052.012-.061.216-.09.333Z" transform="translate(-43.196 -39.833)"/><path class="a" d="M1253.772,493.106c.946-.476,8.949-.662,12.308-.412a.987.987,0,0,1,.678.412Z" transform="translate(-18.648 -1.9)"/><path class="a" d="M1211.545,586.3l.136,1.9h-3.18l-.589-.875,1.425-1.656c.366.477.366.477.366,1.646l1.194.137.273-1.045.405-.074Zm-2.553.632-.33,0,.079.48.219-.012Z" transform="translate(-0.022 -39.709)"/><path class="a" d="M1249.518,585.031v1.776H1247.5V583.4l.636-.415v2.973C1249.42,586.536,1248.7,585.1,1249.518,585.031Z" transform="translate(-16.101 -38.618)"/><path class="a" d="M1243.844,583.347l.626.489c-.352.77.26,1.769-.585,2.469l.348.731-1.7.086.368-.765c-.807-.628-.325-1.6-.552-2.516l.622-.484.276,2.693c.907-.907.365-1.885.633-2.694Z" transform="translate(-14.009 -38.765)"/><path class="a" d="M1257.32,490.651c.205-.1.411-.276.617-.276,2.649,0,5.3.031,7.947.064.125,0,.248.123.257.36h-8.755Z" transform="translate(-20.089 -1.004)"/><path class="a" d="M1253.31,588.543l.691-.894h2.654l.462-1.079.2.045v1.928Z" transform="translate(-18.46 -40.075)"/><path class="a" d="M1289.463,588.165c.078-.8.8-.594,1.479-.814l-.942-.387.16-.536a1.986,1.986,0,0,1,.787-.027c.747.308.8.952.659,1.764Z" transform="translate(-33.145 -39.991)"/><path class="a" d="M1287.295,583.441c.179,2.967.17,3.055-.455,3.728a13.363,13.363,0,0,1-.088-3.264C1286.763,583.781,1287.007,583.679,1287.295,583.441Z" transform="translate(-32.019 -38.804)"/><path class="a" d="M1265.591,488.355h-4.7A6.355,6.355,0,0,1,1265.591,488.355Z" transform="translate(-21.538 0)"/><path class="a" d="M1279.384,583.374c.08,1.2.161,2.4.243,3.619l-.5.063c-.067-.093-.169-.171-.16-.23.175-1.152-.551-2.424.454-3.465Z" transform="translate(-28.843 -38.771)"/><path class="a" d="M1284.7,587.219v1.958l-.835.322-.158-.172C1284.539,588.863,1283.481,587.556,1284.7,587.219Z" transform="translate(-30.806 -40.338)"/><path class="a" d="M1312.2,589.086l-.733.393.459-2.327.273.03Z" transform="translate(-42.081 -40.311)"/><path class="a" d="M1216.443,587.253v2.065l-.708.414a13.641,13.641,0,0,1,.2-1.709,2.664,2.664,0,0,1,.52-.767Z" transform="translate(-3.199 -40.352)"/><path class="a" d="M1242.574,591.309l.435-.829C1243.261,591.042,1243.326,591.314,1242.574,591.309Z" transform="translate(-14.1 -41.663)"/><path class="a" d="M1257.792,585.178l-.18.162-.173-.271c.078-.03.163-.093.231-.079C1257.722,585,1257.752,585.112,1257.792,585.178Z" transform="translate(-20.138 -39.432)"/><path class="a" d="M1270.788,583.822l-.18.159-.181-.282c.079-.033.171-.106.234-.087S1270.747,583.748,1270.788,583.822Z" transform="translate(-25.413 -38.872)"/><path class="a" d="M1213.352,590.73l.353.134-.111.216-.309-.216Z" transform="translate(-2.204 -41.764)"/><path class="a" d="M1249.783,590.254l.357.422a1.654,1.654,0,0,1-.43-.147C1249.685,590.508,1249.748,590.377,1249.783,590.254Z" transform="translate(-16.996 -41.571)"/><path class="a" d="M1299.1,582.868l-.21.238-.228-.216.278-.17Z" transform="translate(-36.879 -38.511)"/><path class="a" d="M1208.96,583.149l-.044.3-.153-.04.1-.29Z" transform="translate(-0.367 -38.675)"/><path class="a" d="M1256.27,585.064l-.264.248-.117-.127.267-.242Z" transform="translate(-19.508 -39.414)"/><path class="a" d="M1223.791,584.844l-.258-.218.089-.113.267.208Z" transform="translate(-6.366 -39.239)"/><path class="a" d="M1297.312,583.059l.3-.039.008.115h-.3Z" transform="translate(-36.333 -38.632)"/><path class="a" d="M1210.361,583.466l.013-.3.083,0v.3Z" transform="translate(-1.016 -38.691)"/><path class="a" d="M1212.359,591.281h0C1212.391,591.082,1212.379,591.16,1212.359,591.281Z" transform="translate(-1.822 -41.937)"/><path class="a" d="M1244.878,583.326l-.074-.052.036.043Z" transform="translate(-15.006 -38.736)"/><path class="a" d="M1279.768,583.36l.081.014h-.115Z" transform="translate(-29.193 -38.771)"/><path class="a" d="M1240.906,585.781l.086-.007-.112.013Z" transform="translate(-13.412 -39.751)"/><path class="a" d="M1310.019,585.768l-.035-.036Z" transform="translate(-41.48 -39.734)"/><path class="a" d="M1214.062,586.738l.06-.071-.092.037Z" transform="translate(-2.506 -40.114)"/><path class="a" d="M1216.939,587.24l.094-.025-.105.023Z" transform="translate(-3.683 -40.337)"/><path class="a" d="M1214.967,520.4l-.069.078.052-.043Z" transform="translate(-2.859 -13.199)"/><path class="a" d="M1257.861,564.641a4.435,4.435,0,0,1,.34,1.081c.04,1.457.03,2.916.03,4.374,0,.473-.169.812-.828.807a4.848,4.848,0,0,1-.214-.906c-.056-1.408-.075-2.818-.121-4.226C1257.052,565.316,1257.138,564.941,1257.861,564.641Z" transform="translate(-19.986 -31.168)"/><path class="a" d="M1222.82,571.713a20.1,20.1,0,0,1-.293-6.277h.738C1223.67,567.83,1223.545,570.682,1222.82,571.713Z" transform="translate(-5.911 -31.491)"/></g></svg>